<svg width="640" height="400" viewBox="0 0 640 400" fill="none" xmlns="http://www.w3.org/2000/svg">
  <rect width="640" height="400" rx="40" fill="#EAF8EE"/>
  <circle cx="146" cy="120" r="76" fill="#CDEDD8"/>
  <circle cx="522" cy="286" r="88" fill="#DDF5E6"/>
  <rect x="92" y="174" width="456" height="148" rx="32" fill="white"/>
  <rect x="120" y="194" width="132" height="108" rx="22" fill="#F5FBF7"/>
  <path d="M186 236C193.18 214.695 214.44 200 239 200C269.928 200 295 225.072 295 256C295 286.928 269.928 312 239 312C214.44 312 193.18 297.305 186 276H230V236H186Z" fill="#66BB92"/>
  <circle cx="180" cy="244" r="24" fill="#F4C95D"/>
  <rect x="286" y="208" width="220" height="16" rx="8" fill="#D9F0E2"/>
  <rect x="286" y="238" width="188" height="16" rx="8" fill="#B8E1C8"/>
  <rect x="286" y="268" width="162" height="16" rx="8" fill="#D9F0E2"/>
  <path d="M104 86C132 58 172 58 196 86" stroke="#5FB48C" stroke-width="14" stroke-linecap="round"/>
</svg>
