<svg width="192" height="192" viewBox="0 0 192 192" fill="none" xmlns="http://www.w3.org/2000/svg">
  <rect width="192" height="192" rx="44" fill="#E7F7EC"/>
  <rect x="20" y="20" width="152" height="152" rx="36" fill="url(#paint0_linear_1_2)"/>
  <path d="M96 48C112.568 48 126 61.4315 126 78V96C126 118.091 108.091 136 86 136H78C61.4315 136 48 122.569 48 106V96C48 69.4903 69.4903 48 96 48Z" fill="white" fill-opacity="0.95"/>
  <path d="M112.5 62C100.073 66.229 91 77.9957 91 92C91 106.004 100.073 117.771 112.5 122C124.927 117.771 134 106.004 134 92C134 77.9957 124.927 66.229 112.5 62Z" fill="#CDEDD8"/>
  <path d="M84 74C74.6112 74 67 81.6112 67 91C67 99.5144 73.2747 106.56 81.4499 107.763L82.1301 107.852C84.7069 108.171 87.1609 109.139 89.255 110.664C93.7855 113.963 96.5 119.221 96.5 124.825V130H106.5V124.825C106.5 116.01 102.279 107.726 95.1292 102.522C92.0293 100.265 88.3989 98.8142 84.5853 98.342L83.9051 98.2528C80.6487 97.7732 78 94.9653 78 91.5C78 87.3579 81.3579 84 85.5 84H92V74H84Z" fill="#2F8F68"/>
  <circle cx="130" cy="58" r="10" fill="#F4C95D"/>
  <defs>
    <linearGradient id="paint0_linear_1_2" x1="32" y1="28" x2="156" y2="166" gradientUnits="userSpaceOnUse">
      <stop stop-color="#6AC198"/>
      <stop offset="1" stop-color="#2F8F68"/>
    </linearGradient>
  </defs>
</svg>
