<svg width="512" height="512" viewBox="0 0 512 512" fill="none" xmlns="http://www.w3.org/2000/svg">
  <rect width="512" height="512" rx="120" fill="#E7F7EC"/>
  <rect x="52" y="52" width="408" height="408" rx="96" fill="url(#paint0_linear_2_2)"/>
  <path d="M256 128C300.183 128 336 163.817 336 208V256C336 314.99 288.99 362 230 362H208C163.817 362 128 326.183 128 282V256C128 185.307 185.307 128 256 128Z" fill="white" fill-opacity="0.95"/>
  <path d="M300 164C266.861 175.278 242.667 206.655 242.667 244C242.667 281.345 266.861 312.722 300 324C333.139 312.722 357.333 281.345 357.333 244C357.333 206.655 333.139 175.278 300 164Z" fill="#CDEDD8"/>
  <path d="M224 196C198.963 196 178.667 216.296 178.667 241.333C178.667 264.038 195.399 282.826 217.2 286.034L219.013 286.272C225.885 287.123 232.429 289.704 238.013 293.771C250.095 302.571 257.333 316.59 257.333 331.534V346.667H284V331.534C284 308.028 272.742 285.936 253.678 272.063C245.412 266.043 235.73 262.171 225.56 260.912L223.746 260.674C215.063 259.394 208 251.907 208 242.667C208 231.621 216.954 222.667 228 222.667H245.333V196H224Z" fill="#2F8F68"/>
  <circle cx="346.667" cy="154.667" r="26.667" fill="#F4C95D"/>
  <defs>
    <linearGradient id="paint0_linear_2_2" x1="84" y1="72" x2="416" y2="442.667" gradientUnits="userSpaceOnUse">
      <stop stop-color="#6AC198"/>
      <stop offset="1" stop-color="#2F8F68"/>
    </linearGradient>
  </defs>
</svg>
